<?xml version="1.0" encoding="UTF-8"?>
<svg version="1.1" xmlns="http://www.w3.org/2000/svg" width="200" height="200">
<path d="M0 0 C1.08361816 0.09514893 2.16723633 0.19029785 3.28369141 0.28833008 C50.49626513 4.90806979 94.79649057 29.18027198 125.1015625 65.7265625 C145.94532562 91.79016386 159.89927135 122.93389849 160.875 156.5625 C160.93751953 157.52542969 161.00003906 158.48835937 161.06445312 159.48046875 C161.22095719 166.37613288 161.22095719 166.37613288 158.61254883 169.42358398 C155.38142627 171.9270064 152.87794204 173.30385006 148.875 174.25 C143.47957458 173.01946438 139.87966864 170.69344356 136.3125 166.4375 C134.72239047 162.1026158 133.977341 157.75731405 133.35626221 153.20489502 C132.95815682 150.30152971 132.47279361 147.41492092 131.99075317 144.52450562 C131.7534678 143.09955928 131.5200837 141.67395742 131.29074097 140.24771118 C127.33602434 115.80739561 116.40460966 93.27230209 99.1484375 75.51171875 C97.3125 73.4375 97.3125 73.4375 97.3125 71.4375 C96.77238281 71.2209375 96.23226562 71.004375 95.67578125 70.78125 C92.49212868 68.97104094 90.0998174 66.47673682 87.5 63.9375 C60.14219969 38.13667924 20.56584703 25.96196695 -16.51171875 26.4921875 C-20.57444201 26.42222671 -23.14994247 25.41036862 -26.6875 23.4375 C-29.18013611 20.54282581 -29.64746772 18.80446254 -30.0625 15 C-29.5330547 9.97026962 -28.03069737 6.90280622 -24.625 3.1875 C-17.08893538 -1.30207041 -8.45580033 -0.77338822 0 0 Z " fill="#E0070B" transform="translate(34.6875,10.5625)"/>
<path d="M0 0 C1.10085937 0.32742187 2.20171875 0.65484375 3.3359375 0.9921875 C18.94320692 6.37807141 33.03804549 15.75765024 45 27 C45.50047852 27.4542334 46.00095703 27.9084668 46.51660156 28.37646484 C66.28338516 46.36182888 81.29188126 72.01063651 83.14111328 99.06445312 C83.23943715 101.25228263 83.28348349 103.43522108 83.3125 105.625 C83.34150391 106.36234375 83.37050781 107.0996875 83.40039062 107.859375 C83.44344653 111.55555844 83.14184663 113.7653478 81.21484375 116.953125 C78.67167182 119.30342851 76.6216379 120.04055214 73.15625 120.25390625 C69.05582787 119.77106669 65.85524085 117.93322011 63 115 C59.14169015 108.55478526 57.64155556 102.04243505 56.0625 94.75 C54.07292248 86.0758929 52.14509985 77.92659445 48 70 C47.47664063 68.99195313 46.95328125 67.98390625 46.4140625 66.9453125 C34.04978687 44.51058614 11.50803185 31.72346732 -12.5 24.6875 C-20.33045272 22.51948914 -27.73352349 21.7667996 -35.81054688 21.5703125 C-40.33375246 21.37697869 -43.29410307 20.85121591 -47 18 C-49.81013746 14.73416458 -51.25994127 12.2150513 -51.4375 7.9375 C-50.99808491 3.98276416 -50.44564766 2.07970446 -48 -1 C-35.70533185 -9.19644543 -13.25722259 -3.96185206 0 0 Z " fill="#E0090D" transform="translate(59,68)"/>
<path d="M0 0 C11.39436633 10.96276155 21.44411552 25.21360226 22.140625 41.48046875 C21.84015411 46.31731716 20.82431974 49.51525265 18.015625 53.48046875 C14.4364326 55.97034172 11.43786328 56.868249 7.140625 56.48046875 C2.61109368 55.2227223 -0.17436502 53.33673123 -3.109375 49.66796875 C-4.93762292 45.97953845 -5.80324491 42.0165159 -6.796875 38.04296875 C-9.59361956 26.96656574 -14.16794023 20.74648261 -23.859375 14.48046875 C-31.31206992 10.59310628 -38.9135402 9.83909193 -47.16015625 9.265625 C-51.85186028 8.26981453 -53.52360551 6.86670374 -56.859375 3.48046875 C-58.21514137 -0.58683035 -58.64517932 -4.25205976 -57.2109375 -8.390625 C-54.74073083 -13.29936902 -51.83391373 -15.28956561 -46.859375 -17.51953125 C-29.45421492 -22.66196491 -12.4032774 -10.92911738 0 0 Z " fill="#E10D10" transform="translate(68.859375,133.51953125)"/>
<path d="M0 0 C18.09664916 14.24629827 30.77704572 37.44053373 35 60 C35.05344843 61.66580943 35.07511158 63.33502672 35 65 C33.56526071 62.3197178 32.60284301 59.85250923 31.9296875 56.890625 C31.75566406 56.13652344 31.58164063 55.38242188 31.40234375 54.60546875 C31.22832031 53.82816406 31.05429688 53.05085938 30.875 52.25 C30.69324219 51.45722656 30.51148438 50.66445312 30.32421875 49.84765625 C29.87824986 47.89947634 29.43850849 45.94987269 29 44 C27.68 44 26.36 44 25 44 C25 43.34 25 42.68 25 42 C24.34 42 23.68 42 23 42 C23 41.34 23 40.68 23 40 C21.515 39.505 21.515 39.505 20 39 C20.165 38.38125 20.33 37.7625 20.5 37.125 C21.07634644 35.03936614 21.07634644 35.03936614 21 33 C20.34 32.67 19.68 32.34 19 32 C19.20625 31.38125 19.4125 30.7625 19.625 30.125 C19.74875 29.42375 19.8725 28.7225 20 28 C19.34 27.34 18.68 26.68 18 26 C18 25.34 18 24.68 18 24 C17.505 23.34 17.01 22.68 16.5 22 C15 20 15 20 15 18 C14.030625 17.7525 13.06125 17.505 12.0625 17.25 C11.051875 16.8375 10.04125 16.425 9 16 C8.3125 13.9375 8.3125 13.9375 8 12 C7.01 11.67 6.02 11.34 5 11 C4.30741771 9.00882592 3.64252365 7.0078864 3 5 C1.4587688 3.29078411 1.4587688 3.29078411 0 2 C0 1.34 0 0.68 0 0 Z " fill="#E95A4C" transform="translate(106,98)"/>
<path d="M0 0 C6.54980717 -0.25398782 12.42457284 0.64942778 18.8125 2.0625 C19.81063721 2.28147949 20.80877441 2.50045898 21.8371582 2.72607422 C46.38688649 8.37116765 46.38688649 8.37116765 54 15 C53.01 15.33 52.02 15.66 51 16 C50.0409375 15.4740625 50.0409375 15.4740625 49.0625 14.9375 C48.381875 14.628125 47.70125 14.31875 47 14 C44.96672915 14.8499169 44.96672915 14.8499169 43 16 C41.68 16 40.36 16 39 16 C38.505 13.03 38.505 13.03 38 10 C33.37078475 8.9838308 29.65537393 9.16203269 25 10 C24.67 9.01 24.34 8.02 24 7 C22.35 7.33 20.7 7.66 19 8 C19 8.66 19 9.32 19 10 C16.03 9.34 13.06 8.68 10 8 C10.99 7.67 11.98 7.34 13 7 C13.33 6.34 13.66 5.68 14 5 C14.66 5.33 15.32 5.66 16 6 C16 5.34 16 4.68 16 4 C10.72 3.01 5.44 2.02 0 1 C0 0.67 0 0.34 0 0 Z " fill="#E4392B" transform="translate(40,12)"/>
<path d="M0 0 C0.66 0.33 1.32 0.66 2 1 C1.52433594 1.40605469 1.04867188 1.81210938 0.55859375 2.23046875 C-2.16994292 5.32828106 -2.23263382 8.99048772 -2 13 C0.02148274 17.11783521 1.75619756 19.33047057 6 21 C8.52564695 21.31579765 8.52564695 21.31579765 11.25390625 21.30859375 C12.27419922 21.33373047 13.29449219 21.35886719 14.34570312 21.38476562 C16.46283677 21.41947273 18.58002873 21.45081346 20.69726562 21.47851562 C27.86687896 21.66258209 34.1747591 22.7937504 41 25 C41 24.34 41 23.68 41 23 C45.61590222 24.28815876 48.29601595 26.03681276 52 29 C54.86531273 30.56626134 57.75589295 32.06547011 60.671875 33.53515625 C63 35 63 35 64 38 C60.02941834 36.76225695 56.27387166 35.26991669 52.49365234 33.53759766 C39.07493179 27.39515614 25.97214678 23.92992625 11.18945312 23.5703125 C6.66624754 23.37697869 3.70589693 22.85121591 0 20 C-2.81013746 16.73416458 -4.25994127 14.2150513 -4.4375 9.9375 C-3.96702145 5.70319306 -3.02681015 3.02681015 0 0 Z " fill="#E6443A" transform="translate(12,66)"/>
<path d="M0 0 C0.91058531 3.07322544 1.08886184 5.80097361 1 9 C2.11375 9.4125 3.2275 9.825 4.375 10.25 C6.97010674 11.21115064 7.80895871 11.67145765 9.2265625 14.109375 C9.48179688 14.73328125 9.73703125 15.3571875 10 16 C11.22589844 15.94199219 12.45179687 15.88398437 13.71484375 15.82421875 C32.87154058 15.21179238 53.33768891 18.13475209 71 26 C71.495 26.99 71.495 26.99 72 28 C71.42636719 27.84144531 70.85273437 27.68289062 70.26171875 27.51953125 C68.38578648 27.00429037 66.5079043 26.49613334 64.62890625 25.9921875 C62.00096459 25.273676 59.38977573 24.52834799 56.77734375 23.7578125 C42.76951707 19.72602844 28.72597312 17.73438824 14.125 18.0625 C9.23512663 18.14620682 6.19139716 17.58618123 2 15 C-1.30511226 11.16180512 -1.3666991 7.9504378 -1 3 C-0.67 2.01 -0.34 1.02 0 0 Z " fill="#EF907C" transform="translate(6,19)"/>
<path d="M0 0 C3.45925163 1.2491742 6.14693203 2.67527795 9 5 C9 4.01 9 3.02 9 2 C12 3 12 3 13.4375 5.6875 C13.953125 6.780625 14.46875 7.87375 15 9 C17.35807198 13.17612835 17.35807198 13.17612835 21 16 C21 16.66 21 17.32 21 18 C21.78375 18.0825 22.5675 18.165 23.375 18.25 C26 19 26 19 27.3125 21.0625 C27.539375 21.701875 27.76625 22.34125 28 23 C29.32 22.67 30.64 22.34 32 22 C34.60018816 25.90028225 34.15085514 29.47434569 34 34 C30.60580737 30.71529745 27.38092265 27.29302848 24.1875 23.8125 C23.39730469 22.95269531 22.60710937 22.09289062 21.79296875 21.20703125 C20 19 20 19 20 17 C19.47535156 16.79246094 18.95070312 16.58492187 18.41015625 16.37109375 C14.96632657 14.41196211 12.30517673 11.77534154 9.4375 9.0625 C8.86064453 8.52431641 8.28378906 7.98613281 7.68945312 7.43164062 C5.08376459 4.99425493 2.51420308 2.5319713 0 0 Z " fill="#E85E4B" transform="translate(112,65)"/>
<path d="M0 0 C2.86697492 1.28519565 4.97607712 2.57129254 7 5 C7 5.66 7 6.32 7 7 C7.556875 6.731875 8.11375 6.46375 8.6875 6.1875 C11 6 11 6 13.75 8.3125 C16 11 16 11 16 13 C15.34 13 14.68 13 14 13 C12.32078205 21.67595942 14.11490139 27.67235209 19 35 C16.45518141 34.01713687 15.2310282 33.39749297 13.83984375 31.00390625 C13.54207031 30.19824219 13.24429688 29.39257812 12.9375 28.5625 C12.60492188 27.66917969 12.27234375 26.77585938 11.9296875 25.85546875 C11.01559332 23.04789376 10.27373663 20.23992506 9.5625 17.375 C8.22885689 12.22261926 6.11457601 8.28380195 3 4 C2.401875 3.175 1.80375 2.35 1.1875 1.5 C0.5996875 0.7575 0.5996875 0.7575 0 0 Z " fill="#EA6555" transform="translate(52,152)"/>
<path d="M0 0 C0 0.33 0 0.66 0 1 C-3.39220869 1.30838261 -5.02306478 0.98846761 -8.125 -0.5625 C-12.32958782 -2.56292064 -16.05776802 -1.82484323 -20.546875 -1.12890625 C-23 -1 -23 -1 -26 -3 C-26 -3.33 -26 -3.66 -26 -4 C-31.63526965 -5.20484722 -37.14536115 -5.1129643 -42.875 -5.0625 C-44.33679688 -5.05573242 -44.33679688 -5.05573242 -45.828125 -5.04882812 C-48.21881434 -5.03710906 -50.6093744 -5.02070219 -53 -5 C-53 -5.33 -53 -5.66 -53 -6 C-35.68795517 -10.46411219 -16.26809007 -6.3507421 0 0 Z " fill="#EA6A5B" transform="translate(67,71)"/>
<path d="M0 0 C4.17469523 3.76882208 6.5888441 7.44623181 9 12.5 C9.3410376 13.2005249 9.6820752 13.9010498 10.03344727 14.62280273 C18.37335948 32.01815261 18.37335948 32.01815261 19 41 C19.66 41 20.32 41 21 41 C21.89536075 47.6512513 22.47594437 54.30992818 23 61 C22.67 61 22.34 61 22 61 C21.78085938 59.83726562 21.56171875 58.67453125 21.3359375 57.4765625 C17.72526496 38.97284052 12.57190781 20.40319746 1.7578125 4.671875 C0 2 0 2 0 0 Z " fill="#F1A58C" transform="translate(146,99)"/>
<path d="M0 0 C3.74270145 3.38723818 5.25691016 7.51042516 7.25 12.0625 C7.62640625 12.89072266 8.0028125 13.71894531 8.390625 14.57226562 C8.74125 15.36439453 9.091875 16.15652344 9.453125 16.97265625 C9.77442383 17.69718994 10.09572266 18.42172363 10.42675781 19.16821289 C11 21 11 21 10 23 C9.01 23 8.02 23 7 23 C5.74335022 20.09399739 5 18.20395416 5 15 C4.01 14.67 3.02 14.34 2 14 C2 13.34 2 12.68 2 12 C1.34 12 0.68 12 0 12 C0.33 11.01 0.66 10.02 1 9 C1.66 9 2.32 9 3 9 C2.34 8.34 1.68 7.68 1 7 C0.34 7 -0.32 7 -1 7 C-1.33 5.68 -1.66 4.36 -2 3 C-1.34 2.67 -0.68 2.34 0 2 C0 1.34 0 0.68 0 0 Z " fill="#E4362B" transform="translate(176,102)"/>
<path d="M0 0 C9.08713707 7.15370365 15.86765719 16.26039671 22 26 C21.67 26.66 21.34 27.32 21 28 C20.01 27.34 19.02 26.68 18 26 C18 25.34 18 24.68 18 24 C17.505 23.34 17.01 22.68 16.5 22 C15 20 15 20 15 18 C14.030625 17.7525 13.06125 17.505 12.0625 17.25 C11.051875 16.8375 10.04125 16.425 9 16 C8.3125 13.9375 8.3125 13.9375 8 12 C7.01 11.67 6.02 11.34 5 11 C4.30741771 9.00882592 3.64252365 7.0078864 3 5 C1.4587688 3.29078411 1.4587688 3.29078411 0 2 C0 1.34 0 0.68 0 0 Z " fill="#EB6E5B" transform="translate(106,98)"/>
<path d="M0 0 C0 0.66 0 1.32 0 2 C0.33 2.66 0.66 3.32 1 4 C1.66 4 2.32 4 3 4 C3.33 5.65 3.66 7.3 4 9 C-0.57888152 7.54884678 -4.97649435 5.79418096 -9.375 3.875 C-10.01566406 3.59785156 -10.65632813 3.32070313 -11.31640625 3.03515625 C-12.87856925 2.35899615 -14.43942315 1.67981293 -16 1 C-15.37609375 0.84789062 -14.7521875 0.69578125 -14.109375 0.5390625 C-12.04165513 0.04535975 -12.04165513 0.04535975 -10.25 -0.625 C-6.73346944 -1.21108843 -3.5162867 -0.527443 0 0 Z " fill="#E43329" transform="translate(94,47)"/>
<path d="M0 0 C0.66 0.33 1.32 0.66 2 1 C1.52433594 1.40605469 1.04867188 1.81210938 0.55859375 2.23046875 C-2.16994292 5.32828106 -2.23263382 8.99048772 -2 13 C0.01908328 17.11294741 1.75333092 19.34361502 6 21 C8.6249657 21.30010296 8.6249657 21.30010296 11.46484375 21.2734375 C13.03588867 21.304375 13.03588867 21.304375 14.63867188 21.3359375 C16.83390616 21.36193199 19.02924599 21.38018952 21.22460938 21.390625 C29.31316988 21.56959745 29.31316988 21.56959745 33.25390625 24.0390625 C33.83011719 24.68617187 34.40632813 25.33328125 35 26 C34.25878906 25.86722656 33.51757812 25.73445313 32.75390625 25.59765625 C25.41480984 24.3669877 18.26490089 23.67071935 10.82641602 23.51782227 C6.39019097 23.35456084 3.54653105 22.70027319 0 20 C-2.81013746 16.73416458 -4.25994127 14.2150513 -4.4375 9.9375 C-3.96702145 5.70319306 -3.02681015 3.02681015 0 0 Z " fill="#F1A68E" transform="translate(12,66)"/>
<path d="M0 0 C11.37189695 5.15427537 24.85401944 11.28102915 32 22 C29.7126273 20.8986724 27.58541203 19.73709056 25.4375 18.375 C23.03094021 16.75433941 23.03094021 16.75433941 20 17 C19.67 16.01 19.34 15.02 19 14 C18.34 14 17.68 14 17 14 C16.82726562 13.42765625 16.65453125 12.8553125 16.4765625 12.265625 C14.22848941 8.81620068 10.99498623 7.55331417 7.375 5.75 C6.66859375 5.38648437 5.9621875 5.02296875 5.234375 4.6484375 C3.49490048 3.75519383 1.74812669 2.87619002 0 2 C0 1.34 0 0.68 0 0 Z " fill="#ED826C" transform="translate(72,74)"/>
<path d="M0 0 C0.33 0 0.66 0 1 0 C1.92909742 6.42752641 2.27953626 12.75846598 2.375 19.25 C2.41238281 20.2296875 2.44976562 21.209375 2.48828125 22.21875 C2.57644797 29.38964332 2.57644797 29.38964332 -0.5234375 32.671875 C-1.34070313 33.11015625 -2.15796875 33.5484375 -3 34 C-3.33 33.34 -3.66 32.68 -4 32 C-2.68 30.68 -1.36 29.36 0 28 C-0.66 27.67 -1.32 27.34 -2 27 C-1.505 22.545 -1.505 22.545 -1 18 C-0.34 18 0.32 18 1 18 C0.67 17.34 0.34 16.68 0 16 C-0.07181821 13.28239892 -0.09299506 10.59140612 -0.0625 7.875 C-0.05798828 7.12089844 -0.05347656 6.36679688 -0.04882812 5.58984375 C-0.03703499 3.72652873 -0.01909942 1.86325445 0 0 Z " fill="#E85F49" transform="translate(193,148)"/>
<path d="M0 0 C0.66 0 1.32 0 2 0 C2.185625 1.7015625 2.185625 1.7015625 2.375 3.4375 C2.684375 5.2009375 2.684375 5.2009375 3 7 C3.66 7.33 4.32 7.66 5 8 C4.67386719 8.5671875 4.34773437 9.134375 4.01171875 9.71875 C0.91465227 16.70209681 3.29020395 26.62319108 4 34 C1.07899831 28.91372747 0.9722938 23.29263037 0.3125 17.5625 C0.17005859 16.43005859 0.02761719 15.29761719 -0.11914062 14.13085938 C-0.24869141 13.03708984 -0.37824219 11.94332031 -0.51171875 10.81640625 C-0.62990967 9.82068604 -0.74810059 8.82496582 -0.86987305 7.79907227 C-1.00005792 4.99875404 -0.67316001 2.7109173 0 0 Z " fill="#E64136" transform="translate(168,143)"/>
<path d="M0 0 C-3.41610225 0.94314127 -6.45134864 1.08065117 -10 1 C-10 1.99 -10 2.98 -10 4 C-10.66 4 -11.32 4 -12 4 C-13.125 -0.75 -13.125 -0.75 -12 -3 C-13.04800781 -2.91621094 -14.09601562 -2.83242187 -15.17578125 -2.74609375 C-16.55466381 -2.64291206 -17.93357143 -2.54006494 -19.3125 -2.4375 C-20.00279297 -2.38142578 -20.69308594 -2.32535156 -21.40429688 -2.26757812 C-24.62512274 -2.03418495 -26.90327345 -1.96775782 -30 -3 C-19.24194523 -6.45069681 -10.23595459 -4.2567316 0 0 Z " fill="#E74B3F" transform="translate(50,120)"/>
<path d="M0 0 C2.31 0.66 4.62 1.32 7 2 C6 5 6 5 3.4375 6.75 C-1.03502031 8.37637102 -3.37418916 8.00225902 -8 7 C-8.66 6.34 -9.32 5.68 -10 5 C-8.906875 5.103125 -7.81375 5.20625 -6.6875 5.3125 C-5.470625 5.209375 -4.25375 5.10625 -3 5 C-0.99135641 2.6273026 -0.99135641 2.6273026 0 0 Z " fill="#E8584C" transform="translate(81,182)"/>
<path d="M0 0 C3.67758005 3.28355362 5.81389118 6.62778237 8 11 C7.67 11.66 7.34 12.32 7 13 C4.36 13 1.72 13 -1 13 C-0.9278125 12.39671875 -0.855625 11.7934375 -0.78125 11.171875 C-0.6884375 10.37265625 -0.595625 9.5734375 -0.5 8.75 C-0.4071875 7.96109375 -0.314375 7.1721875 -0.21875 6.359375 C0.06154619 3.73109603 0.06154619 3.73109603 0 0 Z " fill="#E74A3D" transform="translate(78,145)"/>
<path d="M0 0 C3.28430224 2.94237489 3.98858818 5.72094999 5 10 C5 10.66 5 11.32 5 12 C5.33 12.66 5.66 13.32 6 14 C5.34 14 4.68 14 4 14 C6.1993928 20.43156951 6.1993928 20.43156951 10 26 C6.21725597 24.36977977 4.66636739 22.55120337 2.8828125 18.7734375 C0.95793179 12.7262459 0.58054994 6.29438357 0 0 Z " fill="#E75343" transform="translate(116,159)"/>
<path d="M0 0 C0 0.33 0 0.66 0 1 C-0.63502441 1.00410889 -1.27004883 1.00821777 -1.92431641 1.01245117 C-4.82546477 1.04552098 -7.72455014 1.11617746 -10.625 1.1875 C-12.12353516 1.19620117 -12.12353516 1.19620117 -13.65234375 1.20507812 C-20.28702425 1.40280039 -23.35107271 2.23186945 -28 7 C-30.375 7.8125 -30.375 7.8125 -32 8 C-30.58967363 4.59171127 -29.0653223 3.01982845 -26 1 C-17.69556756 -2.15439682 -8.62555182 -0.79192411 0 0 Z " fill="#EE8973" transform="translate(39,11)"/>
<path d="M0 0 C4.25813754 1.46643042 7.4720708 3.61173467 11.0625 6.3125 C12.08472656 7.07175781 13.10695313 7.83101562 14.16015625 8.61328125 C16.86257089 10.88449906 18.90975284 13.16789053 21 16 C18.04912279 14.66338822 15.91682966 13.15046114 13.5625 10.9375 C10.72909307 8.4263475 8.82448845 7.43708439 5 7 C4.34 6.34 3.68 5.68 3 5 C1.68252676 4.30251417 0.35085807 3.63040043 -1 3 C-0.34 2.67 0.32 2.34 1 2 C0.67 1.34 0.34 0.68 0 0 Z " fill="#ED8770" transform="translate(50,121)"/>
<path d="M0 0 C0.33 0 0.66 0 1 0 C1.1083667 2.7302389 1.18746694 5.45614543 1.25 8.1875 C1.30027344 9.34088867 1.30027344 9.34088867 1.3515625 10.51757812 C1.41921234 14.45818136 1.28382014 16.51964069 -0.765625 19.98828125 C-4.28161585 23.15390238 -6.30746223 23 -11 23 C-13.25 21.5 -13.25 21.5 -15 20 C-14.22914062 20.03480469 -13.45828125 20.06960937 -12.6640625 20.10546875 C-11.15972656 20.14607422 -11.15972656 20.14607422 -9.625 20.1875 C-8.62726563 20.22230469 -7.62953125 20.25710937 -6.6015625 20.29296875 C-5.31378906 20.14794922 -5.31378906 20.14794922 -4 20 C-3.34 19.01 -2.68 18.02 -2 17 C-1.67 16.67 -1.34 16.34 -1 16 C-0.76321284 13.30764224 -0.57801975 10.63501844 -0.4375 7.9375 C-0.39431641 7.17888672 -0.35113281 6.42027344 -0.30664062 5.63867188 C-0.20026367 3.75934562 -0.09960066 1.87969756 0 0 Z " fill="#F3AD9B" transform="translate(141,165)"/>
<path d="M0 0 C3.21338932 1.34962351 4.86536595 2.70522995 7.125 5.3125 C6.795 5.9725 6.465 6.6325 6.125 7.3125 C4.66133658 6.91496179 3.2041065 6.49368616 1.75 6.0625 C0.93789062 5.83046875 0.12578125 5.5984375 -0.7109375 5.359375 C-3.33285454 4.0910108 -3.86882318 2.98826692 -4.875 0.3125 C-2.875 -0.6875 -2.875 -0.6875 0 0 Z " fill="#E0110C" transform="translate(68.875,135.6875)"/>
<path d="M0 0 C1.90401138 1.90401138 2.93520439 3.33425686 3.19921875 6.046875 C3.1886578 8.03233273 3.09915043 10.0169914 3 12 C-3 6 -3 6 -3.0625 3.4375 C-3.041875 2.633125 -3.02125 1.82875 -3 1 C-2.01 0.67 -1.02 0.34 0 0 Z " fill="#E64438" transform="translate(143,87)"/>
<path d="M0 0 C2.67576692 1.00617682 3.7785108 1.54214546 5.046875 4.1640625 C5.27890625 4.97617188 5.5109375 5.78828125 5.75 6.625 C5.99234375 7.44226563 6.2346875 8.25953125 6.484375 9.1015625 C6.73960937 10.04128906 6.73960937 10.04128906 7 11 C6.01 11 5.02 11 4 11 C1.4345406 8.4345406 1.45953913 6.52313332 1 3 C0.01 2.67 -0.98 2.34 -2 2 C-1.34 1.34 -0.68 0.68 0 0 Z " fill="#E32E22" transform="translate(180,114)"/>
<path d="M0 0 C2.49361571 1.20381448 4.68143083 2.45428722 7 4 C7 4.66 7 5.32 7 6 C8.65 6.33 10.3 6.66 12 7 C12.66 9.31 13.32 11.62 14 14 C12.84775972 13.07038578 11.70340824 12.1309875 10.5625 11.1875 C9.60537109 10.40439453 9.60537109 10.40439453 8.62890625 9.60546875 C7 8 7 8 6 5 C4.67532254 4.3162955 3.34136367 3.65035814 2 3 C1.34 2.01 0.68 1.02 0 0 Z " fill="#EE8B77" transform="translate(126,77)"/>
<path d="M0 0 C8.54011956 0.44947998 16.01533633 3.14908583 24 6 C24 6.33 24 6.66 24 7 C19.31841606 7.42559854 16.25114227 5.83238891 12 4 C9.67085177 3.63858045 7.33746522 3.30300475 5 3 C2.0625 1.9375 2.0625 1.9375 0 1 C0 0.67 0 0.34 0 0 Z " fill="#F1A08A" transform="translate(43,65)"/>
<path d="M0 0 C0 0.99 0 1.98 0 3 C0.99 3.33 1.98 3.66 3 4 C3.33 4.99 3.66 5.98 4 7 C-0.72065967 5.45730076 -5.41664092 3.92205381 -10 2 C-8.66666667 1.66666667 -7.33333333 1.33333333 -6 1 C-5.29875 0.814375 -4.5975 0.62875 -3.875 0.4375 C-2 0 -2 0 0 0 Z " fill="#EA6657" transform="translate(88,46)"/>
<path d="M0 0 C2.97 0.33 5.94 0.66 9 1 C9 1.66 9 2.32 9 3 C3.25 5 3.25 5 1 5 C1 4.34 1 3.68 1 3 C0.34 3 -0.32 3 -1 3 C-0.67 2.01 -0.34 1.02 0 0 Z " fill="#E43027" transform="translate(63,72)"/>
<path d="M0 0 C3.96 1.98 7.92 3.96 12 6 C11.01 6.99 10.02 7.98 9 9 C5.4781747 7.04343039 2.65557215 5.04899025 0 2 C0 1.34 0 0.68 0 0 Z " fill="#E5422D" transform="translate(99,29)"/>
<path d="M0 0 C3.39417765 3.12621626 5.6062718 5.56541027 7 10 C3.5625 8.8125 3.5625 8.8125 0 7 C-1 4.4375 -1 4.4375 -1 2 C-0.67 1.34 -0.34 0.68 0 0 Z " fill="#E64936" transform="translate(167,88)"/>
<path d="M0 0 C4.67105792 1.55701931 8.08705685 4.08447373 12 7 C9 8 9 8 7.0625 7.1875 C6.381875 6.795625 5.70125 6.40375 5 6 C4.278125 5.71125 3.55625 5.4225 2.8125 5.125 C1 4 1 4 0.25 1.875 C0.1675 1.25625 0.085 0.6375 0 0 Z " fill="#E54632" transform="translate(111,36)"/>
<path d="M0 0 C1.27875 0.103125 2.5575 0.20625 3.875 0.3125 C4.95394531 0.39951172 4.95394531 0.39951172 6.0546875 0.48828125 C8 1 8 1 10 4 C8.35 4 6.7 4 5 4 C4.67 4.66 4.34 5.32 4 6 C4 5.34 4 4.68 4 4 C2.68 4.33 1.36 4.66 0 5 C0.99 4.01 1.98 3.02 3 2 C2.01 1.34 1.02 0.68 0 0 Z " fill="#E0140D" transform="translate(42,120)"/>
<path d="M0 0 C0.99 0 1.98 0 3 0 C3 0.66 3 1.32 3 2 C2.34 2.66 1.68 3.32 1 4 C1.66 4.66 2.32 5.32 3 6 C2.34 6 1.68 6 1 6 C1.33 6.99 1.66 7.98 2 9 C0.0625 8.1875 0.0625 8.1875 -2 7 C-2.33 6.01 -2.66 5.02 -3 4 C-2.34 4 -1.68 4 -1 4 C-0.67 2.68 -0.34 1.36 0 0 Z " fill="#E53C30" transform="translate(50,143)"/>
<path d="M0 0 C0 0.33 0 0.66 0 1 C-2.60380996 1.19476139 -5.20775533 1.38108614 -7.8125 1.5625 C-8.55048828 1.61857422 -9.28847656 1.67464844 -10.04882812 1.73242188 C-13.36788516 1.95769724 -15.81232564 2.06255812 -19 1 C-12.33928512 -1.13645572 -6.89836454 -0.93838047 0 0 Z " fill="#F1A38E" transform="translate(39,116)"/>
<path d="M0 0 C4.875 3.625 4.875 3.625 6 7 C5.01 7.66 4.02 8.32 3 9 C2.67 8.01 2.34 7.02 2 6 C2.33 5.34 2.66 4.68 3 4 C2.34 4 1.68 4 1 4 C0.67 4.66 0.34 5.32 0 6 C-1.24546405 3.50907189 -0.7767578 2.58919267 0 0 Z " fill="#E64435" transform="translate(152,69)"/>
<path d="M0 0 C1.98 1.65 3.96 3.3 6 5 C4.125 5.625 4.125 5.625 2 6 C1.34 5.34 0.68 4.68 0 4 C-2.10820797 4.3185177 -2.10820797 4.3185177 -4 5 C-4 4.01 -4 3.02 -4 2 C-2.68 2 -1.36 2 0 2 C0 1.34 0 0.68 0 0 Z " fill="#E33124" transform="translate(146,63)"/>
<path d="M0 0 C0.66 0 1.32 0 2 0 C1.79375 0.928125 1.5875 1.85625 1.375 2.8125 C0.63307034 6.15173402 0.63307034 6.15173402 3 9 C-0.36591866 7.55746343 -2.51047079 5.66735273 -5 3 C-3.68 3.33 -2.36 3.66 -1 4 C-0.67 2.68 -0.34 1.36 0 0 Z " fill="#EA6556" transform="translate(177,174)"/>
<path d="M0 0 C3.81684226 1.55500981 6.19195732 4.03595495 9 7 C8.01 7 7.02 7 6 7 C5.67 6.01 5.34 5.02 5 4 C3.35 4.33 1.7 4.66 0 5 C0 3.35 0 1.7 0 0 Z " fill="#E64D39" transform="translate(127,47)"/>
<path d="M0 0 C1.65 0.33 3.3 0.66 5 1 C5 1.99 5 2.98 5 4 C2.69 4.33 0.38 4.66 -2 5 C-2 4.34 -2 3.68 -2 3 C-1.34 3 -0.68 3 0 3 C0 2.01 0 1.02 0 0 Z " fill="#E2271C" transform="translate(67,17)"/>
<path d="M0 0 C2.99324263 1.0975223 3.84610901 1.67682892 5.25 4.625 C5.4975 5.40875 5.745 6.1925 6 7 C4.35 6.67 2.7 6.34 1 6 C0.67 4.02 0.34 2.04 0 0 Z " fill="#E11D15" transform="translate(95,27)"/>
<path d="M0 0 C2.50037734 2.17424117 3.43628586 3.73045798 4 7 C2.35 7 0.7 7 -1 7 C-1.33 5.68 -1.66 4.36 -2 3 C-1.34 2.67 -0.68 2.34 0 2 C0 1.34 0 0.68 0 0 Z " fill="#E64938" transform="translate(176,102)"/>
<path d="M0 0 C2.75 -0.25 2.75 -0.25 6 0 C8.375 2 8.375 2 10 4 C9.01 4.495 9.01 4.495 8 5 C6.0546875 4.22265625 6.0546875 4.22265625 3.875 3.0625 C3.15054688 2.68222656 2.42609375 2.30195312 1.6796875 1.91015625 C1.12539062 1.60980469 0.57109375 1.30945313 0 1 C0 0.67 0 0.34 0 0 Z " fill="#ED8371" transform="translate(66,99)"/>
<path d="M0 0 C0 3 0 3 -1 6 C-2.98 4.68 -4.96 3.36 -7 2 C-4.6921509 0.84607545 -2.52769669 0.46562834 0 0 Z " fill="#EB755F" transform="translate(83,103)"/>
<path d="M0 0 C1.65 1.32 3.3 2.64 5 4 C4.67 4.66 4.34 5.32 4 6 C2.02 5.34 0.04 4.68 -2 4 C-1.34 3.34 -0.68 2.68 0 2 C0 1.34 0 0.68 0 0 Z " fill="#EB6F5E" transform="translate(71,137)"/>
<path d="M0 0 C2.475 0.495 2.475 0.495 5 1 C5 1.66 5 2.32 5 3 C5.66 3 6.32 3 7 3 C7 3.66 7 4.32 7 5 C5.68 4.67 4.36 4.34 3 4 C3 3.34 3 2.68 3 2 C2.01 1.67 1.02 1.34 0 1 C0 0.67 0 0.34 0 0 Z " fill="#E0160E" transform="translate(72,99)"/>
<path d="M0 0 C3.0831351 1.19899698 6.06279492 2.47700477 9 4 C8.67 4.66 8.34 5.32 8 6 C5.36 4.68 2.72 3.36 0 2 C0 1.34 0 0.68 0 0 Z " fill="#E0140B" transform="translate(78,79)"/>
</svg>
